<mxfile host="app.diagrams.net" agent="Mozilla/5.0 (X11; Linux x86_64; rv:132.0) Gecko/20100101 Firefox/132.0" version="24.8.4">
  <diagram name="Page-1" id="6ZL5nYawTV1ZcEj9YXQn">
    <mxGraphModel dx="628" dy="741" grid="1" gridSize="10" guides="1" tooltips="1" connect="1" arrows="1" fold="1" page="1" pageScale="1" pageWidth="850" pageHeight="1100" math="0" shadow="0">
      <root>
        <mxCell id="0" />
        <mxCell id="1" parent="0" />
        <mxCell id="0MddoHVErleE_BSECKgU-5" style="edgeStyle=orthogonalEdgeStyle;rounded=0;orthogonalLoop=1;jettySize=auto;html=1;entryX=0.5;entryY=0;entryDx=0;entryDy=0;" edge="1" parent="1" source="0MddoHVErleE_BSECKgU-1" target="0MddoHVErleE_BSECKgU-2">
          <mxGeometry relative="1" as="geometry" />
        </mxCell>
        <mxCell id="0MddoHVErleE_BSECKgU-1" value="start" style="ellipse;whiteSpace=wrap;html=1;" vertex="1" parent="1">
          <mxGeometry x="260" y="40" width="120" height="80" as="geometry" />
        </mxCell>
        <mxCell id="0MddoHVErleE_BSECKgU-20" style="edgeStyle=orthogonalEdgeStyle;rounded=0;orthogonalLoop=1;jettySize=auto;html=1;entryX=0.5;entryY=0;entryDx=0;entryDy=0;" edge="1" parent="1" source="0MddoHVErleE_BSECKgU-2" target="0MddoHVErleE_BSECKgU-18">
          <mxGeometry relative="1" as="geometry" />
        </mxCell>
        <mxCell id="0MddoHVErleE_BSECKgU-2" value="&lt;div&gt;a = -2&lt;/div&gt;&lt;div&gt;b = -0.1&lt;/div&gt;&lt;div&gt;k = 10&lt;/div&gt;eps = 0.0001" style="rounded=1;whiteSpace=wrap;html=1;" vertex="1" parent="1">
          <mxGeometry x="260" y="160" width="120" height="90" as="geometry" />
        </mxCell>
        <mxCell id="0MddoHVErleE_BSECKgU-22" style="edgeStyle=orthogonalEdgeStyle;rounded=0;orthogonalLoop=1;jettySize=auto;html=1;" edge="1" parent="1" source="0MddoHVErleE_BSECKgU-18" target="0MddoHVErleE_BSECKgU-21">
          <mxGeometry relative="1" as="geometry" />
        </mxCell>
        <mxCell id="0MddoHVErleE_BSECKgU-51" style="edgeStyle=orthogonalEdgeStyle;rounded=0;orthogonalLoop=1;jettySize=auto;html=1;exitX=0;exitY=0.5;exitDx=0;exitDy=0;" edge="1" parent="1" source="0MddoHVErleE_BSECKgU-18" target="0MddoHVErleE_BSECKgU-47">
          <mxGeometry relative="1" as="geometry" />
        </mxCell>
        <mxCell id="0MddoHVErleE_BSECKgU-18" value="x = a; x &amp;lt;= b; x += (b - a) / k" style="shape=hexagon;perimeter=hexagonPerimeter2;whiteSpace=wrap;html=1;fixedSize=1;size=40;" vertex="1" parent="1">
          <mxGeometry x="215" y="300" width="210" height="80" as="geometry" />
        </mxCell>
        <mxCell id="0MddoHVErleE_BSECKgU-24" style="edgeStyle=orthogonalEdgeStyle;rounded=0;orthogonalLoop=1;jettySize=auto;html=1;entryX=0.5;entryY=0;entryDx=0;entryDy=0;" edge="1" parent="1" source="0MddoHVErleE_BSECKgU-21" target="0MddoHVErleE_BSECKgU-23">
          <mxGeometry relative="1" as="geometry" />
        </mxCell>
        <mxCell id="0MddoHVErleE_BSECKgU-21" value="actRes = log(1 / (2 + (2 * x) + (x * x)))" style="rounded=1;whiteSpace=wrap;html=1;" vertex="1" parent="1">
          <mxGeometry x="210" y="430" width="220" height="60" as="geometry" />
        </mxCell>
        <mxCell id="0MddoHVErleE_BSECKgU-26" style="edgeStyle=orthogonalEdgeStyle;rounded=0;orthogonalLoop=1;jettySize=auto;html=1;entryX=0.5;entryY=0;entryDx=0;entryDy=0;" edge="1" parent="1" source="0MddoHVErleE_BSECKgU-23" target="0MddoHVErleE_BSECKgU-25">
          <mxGeometry relative="1" as="geometry" />
        </mxCell>
        <mxCell id="0MddoHVErleE_BSECKgU-23" value="arifRes = 0;" style="rounded=1;whiteSpace=wrap;html=1;" vertex="1" parent="1">
          <mxGeometry x="260" y="540" width="120" height="60" as="geometry" />
        </mxCell>
        <mxCell id="0MddoHVErleE_BSECKgU-28" style="edgeStyle=orthogonalEdgeStyle;rounded=0;orthogonalLoop=1;jettySize=auto;html=1;entryX=0.5;entryY=0;entryDx=0;entryDy=0;" edge="1" parent="1" source="0MddoHVErleE_BSECKgU-25" target="0MddoHVErleE_BSECKgU-27">
          <mxGeometry relative="1" as="geometry" />
        </mxCell>
        <mxCell id="0MddoHVErleE_BSECKgU-31" style="edgeStyle=orthogonalEdgeStyle;rounded=0;orthogonalLoop=1;jettySize=auto;html=1;exitX=0;exitY=0.5;exitDx=0;exitDy=0;entryX=0;entryY=0.5;entryDx=0;entryDy=0;" edge="1" parent="1" source="0MddoHVErleE_BSECKgU-25" target="0MddoHVErleE_BSECKgU-30">
          <mxGeometry relative="1" as="geometry">
            <Array as="points">
              <mxPoint x="160" y="690" />
              <mxPoint x="160" y="920" />
            </Array>
          </mxGeometry>
        </mxCell>
        <mxCell id="0MddoHVErleE_BSECKgU-25" value="n = 1; n &amp;lt; 40; n++" style="shape=hexagon;perimeter=hexagonPerimeter2;whiteSpace=wrap;html=1;fixedSize=1;size=40;" vertex="1" parent="1">
          <mxGeometry x="215" y="650" width="210" height="80" as="geometry" />
        </mxCell>
        <mxCell id="0MddoHVErleE_BSECKgU-29" style="edgeStyle=orthogonalEdgeStyle;rounded=0;orthogonalLoop=1;jettySize=auto;html=1;entryX=1;entryY=0.5;entryDx=0;entryDy=0;" edge="1" parent="1" source="0MddoHVErleE_BSECKgU-27" target="0MddoHVErleE_BSECKgU-25">
          <mxGeometry relative="1" as="geometry">
            <Array as="points">
              <mxPoint x="480" y="810" />
              <mxPoint x="480" y="690" />
            </Array>
          </mxGeometry>
        </mxCell>
        <mxCell id="0MddoHVErleE_BSECKgU-27" value="arifRes += (-1)^n * ((1+x)^(2n)) / n" style="rounded=1;whiteSpace=wrap;html=1;" vertex="1" parent="1">
          <mxGeometry x="210" y="780" width="220" height="60" as="geometry" />
        </mxCell>
        <mxCell id="0MddoHVErleE_BSECKgU-33" style="edgeStyle=orthogonalEdgeStyle;rounded=0;orthogonalLoop=1;jettySize=auto;html=1;exitX=1;exitY=0.5;exitDx=0;exitDy=0;entryX=0;entryY=0.5;entryDx=0;entryDy=0;" edge="1" parent="1" source="0MddoHVErleE_BSECKgU-30" target="0MddoHVErleE_BSECKgU-32">
          <mxGeometry relative="1" as="geometry" />
        </mxCell>
        <mxCell id="0MddoHVErleE_BSECKgU-30" value="epsRes = 0" style="rounded=1;whiteSpace=wrap;html=1;" vertex="1" parent="1">
          <mxGeometry x="260" y="890" width="120" height="60" as="geometry" />
        </mxCell>
        <mxCell id="0MddoHVErleE_BSECKgU-35" style="edgeStyle=orthogonalEdgeStyle;rounded=0;orthogonalLoop=1;jettySize=auto;html=1;entryX=0.5;entryY=0;entryDx=0;entryDy=0;" edge="1" parent="1" source="0MddoHVErleE_BSECKgU-32" target="0MddoHVErleE_BSECKgU-34">
          <mxGeometry relative="1" as="geometry" />
        </mxCell>
        <mxCell id="0MddoHVErleE_BSECKgU-32" value="i = 1" style="rounded=1;whiteSpace=wrap;html=1;" vertex="1" parent="1">
          <mxGeometry x="430" y="890" width="120" height="60" as="geometry" />
        </mxCell>
        <mxCell id="0MddoHVErleE_BSECKgU-38" style="edgeStyle=orthogonalEdgeStyle;rounded=0;orthogonalLoop=1;jettySize=auto;html=1;entryX=0.5;entryY=0;entryDx=0;entryDy=0;" edge="1" parent="1" source="0MddoHVErleE_BSECKgU-34" target="0MddoHVErleE_BSECKgU-37">
          <mxGeometry relative="1" as="geometry" />
        </mxCell>
        <mxCell id="0MddoHVErleE_BSECKgU-34" value="|actRes-epsRes| &amp;gt; eps" style="rhombus;whiteSpace=wrap;html=1;" vertex="1" parent="1">
          <mxGeometry x="390" y="1000" width="200" height="80" as="geometry" />
        </mxCell>
        <mxCell id="0MddoHVErleE_BSECKgU-43" style="edgeStyle=orthogonalEdgeStyle;rounded=0;orthogonalLoop=1;jettySize=auto;html=1;entryX=0.5;entryY=0;entryDx=0;entryDy=0;" edge="1" parent="1" source="0MddoHVErleE_BSECKgU-37" target="0MddoHVErleE_BSECKgU-39">
          <mxGeometry relative="1" as="geometry" />
        </mxCell>
        <mxCell id="0MddoHVErleE_BSECKgU-37" value="epsRes += (-1)^i * ((1+x)^(2i)) / i" style="rounded=1;whiteSpace=wrap;html=1;" vertex="1" parent="1">
          <mxGeometry x="380" y="1130" width="220" height="60" as="geometry" />
        </mxCell>
        <mxCell id="0MddoHVErleE_BSECKgU-44" style="edgeStyle=orthogonalEdgeStyle;rounded=0;orthogonalLoop=1;jettySize=auto;html=1;entryX=0.5;entryY=0;entryDx=0;entryDy=0;" edge="1" parent="1" source="0MddoHVErleE_BSECKgU-39" target="0MddoHVErleE_BSECKgU-40">
          <mxGeometry relative="1" as="geometry" />
        </mxCell>
        <mxCell id="0MddoHVErleE_BSECKgU-39" value="print x" style="shape=parallelogram;perimeter=parallelogramPerimeter;whiteSpace=wrap;html=1;fixedSize=1;" vertex="1" parent="1">
          <mxGeometry x="430" y="1240" width="120" height="60" as="geometry" />
        </mxCell>
        <mxCell id="0MddoHVErleE_BSECKgU-45" style="edgeStyle=orthogonalEdgeStyle;rounded=0;orthogonalLoop=1;jettySize=auto;html=1;entryX=0.5;entryY=0;entryDx=0;entryDy=0;" edge="1" parent="1" source="0MddoHVErleE_BSECKgU-40" target="0MddoHVErleE_BSECKgU-41">
          <mxGeometry relative="1" as="geometry" />
        </mxCell>
        <mxCell id="0MddoHVErleE_BSECKgU-40" value="print actual result" style="shape=parallelogram;perimeter=parallelogramPerimeter;whiteSpace=wrap;html=1;fixedSize=1;" vertex="1" parent="1">
          <mxGeometry x="415" y="1350" width="150" height="60" as="geometry" />
        </mxCell>
        <mxCell id="0MddoHVErleE_BSECKgU-46" style="edgeStyle=orthogonalEdgeStyle;rounded=0;orthogonalLoop=1;jettySize=auto;html=1;exitX=0.5;exitY=1;exitDx=0;exitDy=0;entryX=0.5;entryY=0;entryDx=0;entryDy=0;" edge="1" parent="1" source="0MddoHVErleE_BSECKgU-41" target="0MddoHVErleE_BSECKgU-42">
          <mxGeometry relative="1" as="geometry" />
        </mxCell>
        <mxCell id="0MddoHVErleE_BSECKgU-41" value="print arifmetic result" style="shape=parallelogram;perimeter=parallelogramPerimeter;whiteSpace=wrap;html=1;fixedSize=1;" vertex="1" parent="1">
          <mxGeometry x="405" y="1460" width="170" height="60" as="geometry" />
        </mxCell>
        <mxCell id="0MddoHVErleE_BSECKgU-49" style="edgeStyle=orthogonalEdgeStyle;rounded=0;orthogonalLoop=1;jettySize=auto;html=1;exitX=1;exitY=0.5;exitDx=0;exitDy=0;entryX=1;entryY=0.5;entryDx=0;entryDy=0;" edge="1" parent="1" source="0MddoHVErleE_BSECKgU-42" target="0MddoHVErleE_BSECKgU-18">
          <mxGeometry relative="1" as="geometry">
            <mxPoint x="630" y="650" as="targetPoint" />
            <Array as="points">
              <mxPoint x="670" y="1600" />
              <mxPoint x="670" y="340" />
            </Array>
          </mxGeometry>
        </mxCell>
        <mxCell id="0MddoHVErleE_BSECKgU-42" value="print epsilon result" style="shape=parallelogram;perimeter=parallelogramPerimeter;whiteSpace=wrap;html=1;fixedSize=1;" vertex="1" parent="1">
          <mxGeometry x="405" y="1570" width="170" height="60" as="geometry" />
        </mxCell>
        <mxCell id="0MddoHVErleE_BSECKgU-47" value="end" style="ellipse;whiteSpace=wrap;html=1;" vertex="1" parent="1">
          <mxGeometry x="40" y="425" width="120" height="70" as="geometry" />
        </mxCell>
      </root>
    </mxGraphModel>
  </diagram>
</mxfile>
